<svg class="site-branding__logo" xmlns="http://www.w3.org/2000/svg" viewBox="0 0 100.51 46">
  <g class="site-branding__logo-symbol">
    <path d="M23,38.58a1.72,1.72,0,0,0,0-3.43,12.15,12.15,0,0,1,0-24.3,1.72,1.72,0,1,0,.26-3.43H23A15.6,15.6,0,0,0,7.52,21.28h-4A19.6,19.6,0,0,1,23,3.43a1.71,1.71,0,0,0,1.58-1.85A1.71,1.71,0,0,0,23,0a23,23,0,0,0,0,46,1.72,1.72,0,0,0,0-3.43A19.58,19.58,0,0,1,3.51,24.72h4A15.6,15.6,0,0,0,23,38.58Z" fill="#1C1C1E"></path>
    <path d="M23,14.75A8.25,8.25,0,1,0,31.28,23,8.25,8.25,0,0,0,23,14.75Zm0,13.07A4.82,4.82,0,1,1,27.85,23,4.82,4.82,0,0,1,23,27.82Z" fill="#1C1C1E"></path>
    <path d="M51.36,14.59h2.37a1.73,1.73,0,0,0,0-3.45H51.36a11.83,11.83,0,0,0-.69,23.65h3.06A1.73,1.73,0,1,0,54,31.34a1.13,1.13,0,0,0-.26,0H51.36a8.39,8.39,0,0,1-8.19-6.65h4.56a1.73,1.73,0,0,0,0-3.45H43.17A8.39,8.39,0,0,1,51.36,14.59Z" fill="#1C1C1E"></path>
    <path d="M70.1,14.59h2.21a1.73,1.73,0,0,0,0-3.45H70.1a11.83,11.83,0,0,0-.69,23.65h2.9a1.73,1.73,0,1,0,.26-3.45,1.13,1.13,0,0,0-.26,0H70.1a8.38,8.38,0,1,1,0-16.75Z" fill="#1C1C1E"></path>
    <path d="M88.69,11.14A11.83,11.83,0,1,0,100.51,23,11.83,11.83,0,0,0,88.69,11.14Zm0,20.13A8.3,8.3,0,1,1,97,23v0A8.31,8.31,0,0,1,88.69,31.27Z" fill="#1C1C1E"></path>
  </g>
</svg>